<svg width="166" height="28" viewBox="0 0 166 28" fill="none" xmlns="http://www.w3.org/2000/svg">
<path d="M149.886 27.9211H139.738C139.587 27.9211 139.472 27.785 139.496 27.6355L144.036 0.234121C144.055 0.115746 144.158 0.0289536 144.277 0.0289536H154.194C157.021 0.0289536 159.377 0.6055 161.261 1.75859C163.155 2.9026 164.491 4.54599 165.27 6.68874C166.059 8.82241 166.208 11.3647 165.719 14.3155C165.248 17.1664 164.301 19.6088 162.879 21.6426C161.465 23.6764 159.653 25.2335 157.443 26.314C155.232 27.3854 152.713 27.9211 149.886 27.9211ZM147.162 21.888C147.137 22.0376 147.252 22.1738 147.403 22.1738H150.308C151.866 22.1738 153.243 21.8923 154.439 21.3294C155.644 20.7574 156.641 19.8449 157.429 18.5919C158.217 17.3299 158.779 15.6729 159.114 13.6209C159.44 11.6597 159.427 10.1117 159.073 8.97676C158.729 7.83275 158.059 7.0156 157.062 6.52531C156.074 6.02594 154.783 5.77625 153.189 5.77625H150.053C149.933 5.77625 149.831 5.86293 149.811 5.9812L147.162 21.888Z" fill="black"/>
<path d="M117.515 27.921C117.364 27.921 117.249 27.7849 117.274 27.6354L121.813 0.234038C121.833 0.115663 121.935 0.0288708 122.054 0.0288708H140.964C141.116 0.0288708 141.231 0.165416 141.205 0.31514L140.364 5.29936C140.344 5.41739 140.242 5.50379 140.123 5.50379H127.858C127.738 5.50379 127.636 5.5911 127.617 5.70992L126.772 10.9393C126.748 11.0885 126.863 11.2238 127.013 11.2238H138.124C138.275 11.2238 138.39 11.3603 138.365 11.51L137.524 16.5079C137.504 16.6259 137.402 16.7124 137.282 16.7124H126.01C125.89 16.7124 125.788 16.7997 125.768 16.9186L124.923 22.1616C124.899 22.3108 125.014 22.4461 125.165 22.4461H137.267C137.419 22.4461 137.534 22.5826 137.509 22.7323L136.668 27.7165C136.648 27.8346 136.546 27.921 136.426 27.921H117.515Z" fill="black"/>
<path d="M90.8471 27.8921C90.6959 27.8921 90.5808 27.7561 90.6056 27.6066L95.145 0.205167C95.1646 0.0867927 95.2668 0 95.3865 0H104.583C106.758 0 108.479 0.367718 109.748 1.10315C111.025 1.83859 111.89 2.85095 112.343 4.14023C112.805 5.42952 112.901 6.90039 112.629 8.55285C112.357 10.1872 111.777 11.6399 110.889 12.911C110.01 14.1821 108.814 15.1809 107.301 15.9072C105.797 16.6336 103.967 16.9968 101.811 16.9968H94.4929C94.3405 16.9968 94.2251 16.8587 94.2519 16.7083L94.7081 14.1483C94.7289 14.0313 94.8305 13.9461 94.9491 13.9461H102.246C103.732 13.9461 104.964 13.7281 105.942 13.2923C106.921 12.8565 107.682 12.2346 108.226 11.4265C108.769 10.6184 109.132 9.66055 109.313 8.55285C109.494 7.427 109.444 6.45096 109.163 5.62473C108.892 4.78942 108.334 4.14477 107.492 3.6908C106.658 3.22775 105.489 2.99622 103.985 2.99622H98.2676C98.1479 2.99622 98.0457 3.08298 98.0261 3.20132L93.9627 27.687C93.9431 27.8053 93.8409 27.8921 93.7212 27.8921H90.8471ZM105.557 15.3624C105.658 15.3624 105.749 15.4252 105.785 15.5201L110.382 27.5591C110.443 27.7197 110.325 27.8921 110.153 27.8921H106.765C106.662 27.8921 106.571 27.8286 106.535 27.7327L102.043 15.6937C101.983 15.5334 102.102 15.3624 102.273 15.3624H105.557Z" fill="black"/>
<path d="M74.7358 27.8921C74.6006 27.8921 74.4909 27.7823 74.4909 27.6468V0.245348C74.4909 0.109846 74.6006 0 74.7358 0H91.9899C92.1411 0 92.2561 0.135959 92.2315 0.28543L91.8174 2.79096C91.7979 2.90938 91.6957 2.99622 91.5759 2.99622H78.1061C77.9709 2.99622 77.8613 3.10607 77.8613 3.24157V12.1754C77.8613 12.3109 77.9709 12.4207 78.1061 12.4207H90.13C90.2811 12.4207 90.3962 12.5567 90.3715 12.7061L89.9575 15.2117C89.9379 15.3301 89.8357 15.4169 89.716 15.4169H78.1061C77.9709 15.4169 77.8613 15.5268 77.8613 15.6623V24.6505C77.8613 24.786 77.9709 24.8959 78.1061 24.8959H91.261C91.3963 24.8959 91.5059 25.0057 91.5059 25.1412V27.6468C91.5059 27.7823 91.3963 27.8921 91.261 27.8921H74.7358Z" fill="black"/>
<path d="M54.0174 2.99622C53.8821 2.99622 53.7725 2.88638 53.7725 2.75087V0.245348C53.7725 0.109846 53.8821 0 54.0174 0H74.4022C74.5375 0 74.6471 0.109846 74.6471 0.245349V2.75087C74.6471 2.88638 74.5375 2.99622 74.4022 2.99622H66.1398C66.0046 2.99622 65.895 3.10607 65.895 3.24157V27.6468C65.895 27.7823 65.7854 27.8921 65.6502 27.8921H62.7694C62.6342 27.8921 62.5246 27.7823 62.5246 27.6468V3.24157C62.5246 3.10607 62.415 2.99622 62.2798 2.99622H54.0174Z" fill="black"/>
<path d="M36.8494 2.99622C36.7142 2.99622 36.6046 2.88638 36.6046 2.75087V0.245348C36.6046 0.109846 36.7142 0 36.8494 0H57.2343C57.3695 0 57.4791 0.109846 57.4791 0.245349V2.75087C57.4791 2.88638 57.3695 2.99622 57.2343 2.99622H48.9719C48.8367 2.99622 48.727 3.10607 48.727 3.24157V27.6468C48.727 27.7823 48.6174 27.8921 48.4822 27.8921H45.6015C45.4663 27.8921 45.3567 27.7823 45.3567 27.6468V3.24157C45.3567 3.10607 45.2471 2.99622 45.1118 2.99622H36.8494Z" fill="black"/>
<path d="M20.8572 27.8921C20.722 27.8921 20.6124 27.7823 20.6124 27.6468V0.245348C20.6124 0.109846 20.722 0 20.8572 0H37.1651C37.3003 0 37.4099 0.109846 37.4099 0.245349V2.75087C37.4099 2.88638 37.3003 2.99622 37.165 2.99622H24.2276C24.0924 2.99622 23.9828 3.10607 23.9828 3.24157V12.1754C23.9828 12.3109 24.0924 12.4207 24.2276 12.4207H36.2953C36.4305 12.4207 36.5401 12.5305 36.5401 12.6661V15.1716C36.5401 15.3071 36.4305 15.4169 36.2953 15.4169H24.2276C24.0924 15.4169 23.9828 15.5268 23.9828 15.6623V24.6505C23.9828 24.786 24.0924 24.8959 24.2276 24.8959H37.3825C37.5177 24.8959 37.6273 25.0057 37.6273 25.1412V27.6468C37.6273 27.7823 37.5177 27.8921 37.3825 27.8921H20.8572Z" fill="black"/>
<path d="M0.244827 28C0.109613 28 0 27.8902 0 27.7547V0.353247C0 0.217745 0.109613 0.107899 0.244826 0.107899H9.73058C11.6695 0.107899 13.2686 0.443839 14.5279 1.11572C15.7873 1.77852 16.725 2.67285 17.3411 3.7987C17.9572 4.91547 18.2652 6.15482 18.2652 7.51674C18.2652 8.71523 18.0523 9.70489 17.6265 10.4857C17.2097 11.2666 16.6571 11.884 15.9685 12.3379C15.3225 12.7695 14.6232 13.0944 13.8707 13.3127C13.8015 13.3327 13.7533 13.3958 13.7533 13.468C13.7533 13.5524 13.8188 13.622 13.9026 13.6302C14.705 13.7085 15.5114 14.0041 16.3218 14.517C17.1825 15.0618 17.9028 15.8426 18.4827 16.8595C19.0625 17.8764 19.3524 19.1203 19.3524 20.5912C19.3524 21.9894 19.0353 23.2469 18.4011 24.3637C17.7669 25.4804 16.7658 26.3657 15.3977 27.0194C14.0296 27.6731 12.2493 28 10.0567 28H0.244827ZM3.37037 24.7584C3.37037 24.8939 3.47998 25.0038 3.6152 25.0038H10.0567C12.2584 25.0038 13.8212 24.577 14.7454 23.7236C15.6786 22.861 16.1452 21.8169 16.1452 20.5912C16.1452 19.6469 15.9051 18.7753 15.4249 17.9763C14.9447 17.1682 14.2606 16.5236 13.3728 16.0424C12.4849 15.5521 11.4339 15.3069 10.2198 15.3069H3.6152C3.47998 15.3069 3.37037 15.4168 3.37037 15.5523V24.7584ZM3.37037 12.1198C3.37037 12.2553 3.47998 12.3652 3.6152 12.3652H9.62186C10.6366 12.3652 11.5517 12.1654 12.3671 11.7659C13.1916 11.3664 13.8439 10.8035 14.3241 10.0771C14.8133 9.35079 15.0579 8.49732 15.0579 7.51674C15.0579 6.29101 14.6321 5.25141 13.7805 4.39794C12.9288 3.5354 11.5788 3.10412 9.73058 3.10412H3.6152C3.47998 3.10412 3.37037 3.21397 3.37037 3.34947V12.1198Z" fill="black"/>
</svg>
