<svg width="16" height="16" viewBox="0 0 16 16" fill="none" xmlns="http://www.w3.org/2000/svg">
<path d="M3.47331 16H0.0569397V4.57143H3.47331V16ZM16 16H12.5836V9.89486C12.5836 8.304 12.0188 7.512 10.8994 7.512C10.0122 7.512 9.44968 7.95543 9.16726 8.84343C9.16726 10.2857 9.16726 16 9.16726 16H5.75089C5.75089 16 5.79644 5.71429 5.75089 4.57143H8.44754L8.65594 6.85714H8.72655C9.4269 5.71429 10.5463 4.93943 12.0814 4.93943C13.2487 4.93943 14.1927 5.26514 14.9136 6.08343C15.639 6.90286 16 8.00229 16 9.54629V16Z" fill="black"/>
<path d="M1.76512 3.42857C2.73998 3.42857 3.53025 2.66106 3.53025 1.71429C3.53025 0.767512 2.73998 0 1.76512 0C0.790273 0 0 0.767512 0 1.71429C0 2.66106 0.790273 3.42857 1.76512 3.42857Z" fill="black"/>
</svg>
