<svg width="28" height="28" viewBox="0 0 28 28" fill="none" xmlns="http://www.w3.org/2000/svg">
<rect width="28" height="28" rx="4" fill="white" fill-opacity="0.3"/>
<path d="M11.287 14C11.287 15.4889 12.5113 16.7132 14.0003 16.7132C15.4892 16.7132 16.7135 15.4889 16.7135 14C16.7135 12.511 15.4892 11.2867 14.0003 11.2867C12.5113 11.2867 11.287 12.511 11.287 14Z" fill="black"/>
<path fill-rule="evenodd" clip-rule="evenodd" d="M9 6C7.34315 6 6 7.34315 6 9V19C6 20.6569 7.34315 22 9 22H19C20.6569 22 22 20.6569 22 19V9C22 7.34315 20.6569 6 19 6H9ZM19.1767 9.76422C19.1767 10.284 18.7553 10.7054 18.2355 10.7054C17.7157 10.7054 17.2944 10.284 17.2944 9.76422C17.2944 9.24443 17.7157 8.82305 18.2355 8.82305C18.7553 8.82305 19.1767 9.24443 19.1767 9.76422ZM9.76498 14C9.76498 11.6507 11.6841 9.76467 14.0003 9.76467C16.3164 9.76467 18.2356 11.6838 18.2356 14C18.2356 16.3161 16.3495 18.2353 14.0003 18.2353C11.651 18.2353 9.76498 16.3492 9.76498 14Z" fill="black"/>
</svg>
