<svg width="28" height="28" viewBox="0 0 28 28" fill="none" xmlns="http://www.w3.org/2000/svg">
<rect width="28" height="28" rx="8" fill="#4D4D4D"/>
<path fill-rule="evenodd" clip-rule="evenodd" d="M9.81395 6C8.46189 6 7.23924 6.34909 6.35181 7.20035C5.45596 8.05969 5 9.33583 5 10.973V17.027C5 18.6642 5.45596 19.9403 6.35181 20.7997C7.23924 21.6509 8.46189 22 9.81395 22H18.186C19.5381 22 20.7608 21.6509 21.6482 20.7997C22.5441 19.9403 23 18.6642 23 17.027V10.973C23 9.33583 22.5441 8.05969 21.6482 7.20035C20.7608 6.34909 19.5381 6 18.186 6H9.81395ZM20.0518 10.8539C20.3261 10.6348 20.3767 10.2275 20.1646 9.94401C19.9526 9.66053 19.5583 9.6083 19.2839 9.82735L14.6398 13.5344C14.263 13.8352 13.7369 13.8352 13.36 13.5344L8.71604 9.82735C8.44162 9.6083 8.04729 9.66053 7.83525 9.94401C7.62321 10.2275 7.67377 10.6348 7.94818 10.8539L12.5922 14.561C13.4214 15.2227 14.5785 15.2227 15.4077 14.561L20.0518 10.8539Z" fill="black"/>
</svg>
