<svg width="208" height="36" viewBox="0 0 208 36" fill="none" xmlns="http://www.w3.org/2000/svg">
<path fill-rule="evenodd" clip-rule="evenodd" d="M12.1927 0.135417C14.622 0.135434 16.6256 0.557395 18.2035 1.40114C19.7815 2.23353 20.9566 3.35676 21.7285 4.77068C22.5005 6.17318 22.8864 7.72961 22.8864 9.43997C22.8864 10.945 22.6197 12.1879 22.0862 13.1685C21.564 14.1491 20.8714 14.9247 20.0086 15.4948C19.1993 16.0367 18.3233 16.4447 17.3806 16.7188C17.2937 16.7441 17.2329 16.8232 17.2329 16.9138C17.2329 17.0199 17.3156 17.1072 17.4211 17.1176C18.4262 17.216 19.4363 17.5874 20.4515 18.2314C21.53 18.9155 22.4326 19.8962 23.1592 21.1733C23.8857 22.4504 24.249 24.0125 24.249 25.8597C24.249 27.6157 23.8514 29.1949 23.0568 30.5974C22.2621 31.9999 21.0078 33.1119 19.2936 33.9329C17.5794 34.7539 15.3485 35.1643 12.6012 35.1643H0.306793C0.137369 35.1643 0 35.0269 0 34.8575V0.44221C0 0.272785 0.137369 0.135417 0.306793 0.135417H12.1927ZM4.52998 19.2233C4.36056 19.2233 4.2232 19.3607 4.22319 19.5301V31.0947C4.22319 31.2641 4.36056 31.4014 4.52998 31.4014H12.6012C15.3599 31.4014 17.3183 30.8655 18.4763 29.7936C19.6455 28.7104 20.2302 27.399 20.2302 25.8597C20.2302 24.6739 19.9293 23.5791 19.3277 22.5757C18.726 21.5609 17.8689 20.7513 16.7564 20.147C15.6438 19.5312 14.3268 19.2233 12.8056 19.2233H4.52998ZM4.52998 3.89825C4.36056 3.89825 4.22319 4.03562 4.22319 4.20504V15.2221C4.22319 15.3915 4.36056 15.5289 4.52998 15.5289H12.0563C13.3278 15.5289 14.4744 15.278 15.4961 14.7763C16.5292 14.2746 17.3466 13.5675 17.9482 12.6553C18.5612 11.7431 18.8676 10.6714 18.8676 9.43997C18.8676 7.90068 18.3343 6.59507 17.2673 5.52325C16.2001 4.44002 14.5085 3.89827 12.1927 3.89825H4.52998Z" fill="white"/>
<path d="M176.63 0.0362839C176.819 0.0362839 176.964 0.207122 176.932 0.394263L175.878 6.65648C175.853 6.80411 175.725 6.91208 175.575 6.91208H160.208C160.058 6.91208 159.929 7.02162 159.905 7.17028L158.846 13.7403C158.816 13.9268 158.96 14.096 159.149 14.096H173.071C173.261 14.096 173.405 14.2663 173.374 14.4533L172.319 20.7327C172.294 20.8804 172.166 20.9886 172.016 20.9886H157.892C157.742 20.9886 157.613 21.0981 157.589 21.2468L156.53 27.834C156.5 28.0204 156.644 28.1896 156.833 28.1897H171.998C172.188 28.1897 172.332 28.3602 172.301 28.5473L171.246 34.8095C171.221 34.9572 171.093 35.0654 170.943 35.0655H147.248C147.058 35.0655 146.914 34.8953 146.945 34.7085L152.633 0.293187C152.658 0.145079 152.786 0.0362839 152.936 0.0362839H176.63Z" fill="white"/>
<path fill-rule="evenodd" clip-rule="evenodd" d="M193.208 0.0362839C196.749 0.0362839 199.701 0.760365 202.062 2.20846C204.435 3.64519 206.11 5.70935 207.086 8.40037C208.073 11.08 208.261 14.2726 207.648 17.9783C207.058 21.5588 205.871 24.6263 204.089 27.1805C202.318 29.7347 200.047 31.6903 197.278 33.0472C194.508 34.3927 191.351 35.0655 187.809 35.0655H175.093C174.904 35.0655 174.76 34.8953 174.791 34.7085L180.479 0.293187C180.503 0.145128 180.631 0.0363556 180.781 0.0362839H193.208ZM188.018 7.25419C187.868 7.25423 187.74 7.36281 187.716 7.51077L184.395 27.4902C184.364 27.6772 184.508 27.8476 184.698 27.8476H188.337C190.29 27.8476 192.016 27.4939 193.514 26.7869C195.024 26.0685 196.273 24.9226 197.26 23.349C198.248 21.7641 198.952 19.6832 199.372 17.1062C199.781 14.6433 199.763 12.6989 199.321 11.2736C198.889 9.83694 198.049 8.8107 196.801 8.19498C195.563 7.56783 193.945 7.25419 191.947 7.25419H188.018Z" fill="white"/>
<path fill-rule="evenodd" clip-rule="evenodd" d="M93.2269 0C93.3077 5.868e-06 93.3811 0.0312699 93.4359 0.0822867C93.4907 0.0312685 93.5641 9.80534e-06 93.6449 0H115.265C115.454 4.69112e-05 115.598 0.169884 115.567 0.356684L115.048 3.50593C115.024 3.6541 114.896 3.76283 114.746 3.76283H97.868C97.6986 3.76283 97.5613 3.90021 97.5612 4.06963V15.292C97.5612 15.4615 97.6986 15.5988 97.868 15.5988H112.934C113.124 15.5989 113.268 15.7687 113.237 15.9555L112.718 19.1048C112.693 19.2529 112.565 19.3617 112.415 19.3617H97.868C97.6986 19.3617 97.5612 19.499 97.5612 19.6685V30.9592C97.5612 31.1287 97.6986 31.266 97.868 31.266H114.093L119.218 0.256903C119.242 0.108795 119.371 0 119.521 0H131.044C133.769 0 135.926 0.461654 137.515 1.38527C139.116 2.30888 140.2 3.58046 140.768 5.19961C141.347 6.81879 141.466 8.66605 141.125 10.7413C140.785 12.7938 140.058 14.6183 138.946 16.2147C137.844 17.811 136.346 19.0653 134.45 19.9775C133.98 20.2052 133.484 20.4041 132.963 20.5749L138.31 34.6129C138.387 34.8137 138.238 35.0289 138.024 35.0289H133.778C133.65 35.0289 133.535 34.9493 133.49 34.8293L128.464 21.3278C128.171 21.3393 127.873 21.3456 127.57 21.3456H119.959L117.736 34.7723C117.712 34.9203 117.584 35.0289 117.433 35.0289H93.6449C93.4754 35.0288 93.3381 34.8915 93.3381 34.7221V3.74178C93.3036 3.7552 93.2662 3.76283 93.2269 3.76283H82.874C82.7046 3.76283 82.5673 3.90021 82.5673 4.06963V34.7221C82.5673 34.8915 82.4299 35.0289 82.2605 35.0289H78.6509C78.4814 35.0289 78.3441 34.8915 78.3441 34.7221V4.06963C78.3441 3.90021 78.2067 3.76283 78.0373 3.76283H61.3622C61.1929 3.76289 61.0554 3.90025 61.0554 4.06963V34.7221C61.0554 34.8915 60.9181 35.0289 60.7486 35.0289H57.1394C56.9699 35.0289 56.8326 34.8915 56.8326 34.7221V4.06963C56.8326 3.90024 56.6952 3.76288 56.5258 3.76283H30.3573C30.1879 3.76289 30.0505 3.90024 30.0505 4.06963V15.292C30.0505 15.4614 30.1879 15.5988 30.3573 15.5988H45.4783C45.6477 15.5988 45.7851 15.7362 45.7851 15.9056V19.0549C45.7851 19.2243 45.6477 19.3617 45.4783 19.3617H30.3573C30.1879 19.3617 30.0505 19.4991 30.0505 19.6685V30.9592C30.0505 31.1286 30.1879 31.266 30.3573 31.266H46.8406C47.01 31.266 47.1474 31.4034 47.1474 31.5728V34.7221C47.1474 34.8915 47.01 35.0289 46.8406 35.0289H26.1345C25.965 35.0289 25.8277 34.8915 25.8277 34.7221V0.306793C25.8277 0.137369 25.965 0 26.1345 0H93.2269ZM123.131 3.76283C122.981 3.76283 122.853 3.87141 122.828 4.01941L120.594 17.5144H128.115C129.977 17.5144 131.521 17.2408 132.747 16.6935C133.973 16.1462 134.927 15.365 135.608 14.3503C136.289 13.3354 136.743 12.1324 136.97 10.7413C137.197 9.32742 137.135 8.10165 136.783 7.06402C136.442 6.01499 135.744 5.2054 134.688 4.63527C133.644 4.05375 132.18 3.76285 130.295 3.76283H123.131Z" fill="white"/>
</svg>
