<svg viewBox="0 0 512 512" fill="none" xmlns="http://www.w3.org/2000/svg"><g clip-path="url(#clip0_750_254)"><rect width="512" height="512" fill="#F2F1EE"/><path d="M79.4473 222.596C84.1191 222.596 87.9723 223.404 91.0068 225.02C94.0414 226.613 96.3016 228.764 97.7861 231.471C99.2705 234.156 100.013 237.136 100.013 240.41C100.013 243.292 99.4997 245.673 98.4736 247.55C97.4694 249.427 96.1376 250.913 94.4785 252.004C92.922 253.042 91.2368 253.822 89.4238 254.347C89.2572 254.395 89.1407 254.547 89.1406 254.721C89.1408 254.924 89.2991 255.091 89.501 255.111C91.434 255.299 93.3767 256.009 95.3291 257.242C97.4031 258.552 99.1399 260.43 100.537 262.875C101.934 265.32 102.633 268.311 102.633 271.848C102.633 275.21 101.868 278.234 100.34 280.919C98.8117 283.604 96.3997 285.733 93.1035 287.305C89.807 288.877 85.5165 289.662 80.2334 289.662H56.877C56.3928 289.662 56 289.27 56 288.785V223.473C56.0001 222.989 56.3928 222.596 56.877 222.596H79.4473ZM395.333 222.407C395.875 222.408 396.287 222.896 396.197 223.431L394.268 234.842C394.196 235.264 393.83 235.572 393.402 235.573H364.337C363.907 235.573 363.54 235.885 363.471 236.309L361.528 248.309C361.442 248.842 361.854 249.326 362.394 249.326H388.489C389.032 249.327 389.443 249.814 389.354 250.349L387.423 261.792C387.352 262.214 386.986 262.523 386.559 262.524H359.883C359.453 262.524 359.087 262.836 359.018 263.26L357.074 275.293C356.988 275.826 357.4 276.31 357.939 276.31H386.426C386.968 276.31 387.38 276.798 387.29 277.333L385.36 288.744C385.289 289.166 384.923 289.475 384.495 289.475H339.508C338.966 289.475 338.554 288.988 338.643 288.454L349.485 223.141C349.556 222.718 349.922 222.408 350.351 222.407H395.333ZM427.554 222.407C434.365 222.408 440.041 223.794 444.582 226.567C449.145 229.317 452.365 233.269 454.242 238.421C456.141 243.551 456.502 249.665 455.323 256.76C454.188 263.615 451.906 269.488 448.479 274.378C445.073 279.268 440.707 283.013 435.38 285.611C430.053 288.187 423.983 289.475 417.172 289.475H393.057C392.515 289.475 392.103 288.988 392.191 288.454L403.035 223.141C403.106 222.718 403.471 222.408 403.899 222.407H427.554ZM234.996 222.337C235.275 222.337 235.523 222.468 235.684 222.671C235.844 222.468 236.094 222.337 236.373 222.337H277.323C277.865 222.337 278.278 222.823 278.189 223.358L277.286 228.808C277.216 229.231 276.85 229.541 276.421 229.541H244.494C244.01 229.541 243.617 229.934 243.617 230.418V251.326C243.618 251.81 244.01 252.202 244.494 252.202H272.842C273.383 252.203 273.794 252.688 273.706 253.222L272.805 258.673C272.735 259.096 272.367 259.406 271.938 259.406H244.494C244.01 259.407 243.617 259.799 243.617 260.283V281.323C243.617 281.807 244.01 282.199 244.494 282.199H275.408L285.225 223.071C285.295 222.648 285.66 222.337 286.089 222.337H308.008C313.247 222.337 317.396 223.221 320.452 224.99C323.53 226.758 325.616 229.192 326.707 232.292C327.82 235.392 328.048 238.929 327.394 242.903C326.739 246.832 325.341 250.325 323.202 253.381C321.085 256.437 318.202 258.839 314.557 260.585C313.652 261.021 312.698 261.402 311.696 261.729L321.829 288.213C322.049 288.787 321.625 289.404 321.011 289.404H313.463C313.097 289.404 312.77 289.177 312.642 288.834L303.045 263.17C302.482 263.192 301.91 263.206 301.327 263.206H286.689L282.455 288.671C282.385 289.094 282.018 289.404 281.59 289.404H236.373C235.889 289.404 235.496 289.011 235.496 288.527V229.384C235.354 229.483 235.182 229.541 234.996 229.541H215.66C215.176 229.541 214.783 229.934 214.783 230.418V288.527C214.783 289.011 214.39 289.403 213.906 289.404H207.539C207.055 289.404 206.662 289.011 206.662 288.527V230.418C206.662 229.934 206.269 229.541 205.785 229.541H174.291C173.807 229.541 173.414 229.934 173.414 230.418V288.527C173.414 289.011 173.021 289.403 172.537 289.404H166.17C165.686 289.404 165.293 289.011 165.293 288.527V230.418C165.293 229.934 164.9 229.541 164.416 229.541H114.667C114.183 229.541 113.79 229.934 113.79 230.418V251.326C113.79 251.81 114.183 252.202 114.667 252.202H143.172C143.656 252.202 144.049 252.595 144.049 253.079V258.53C144.049 259.014 143.656 259.406 143.172 259.406H114.667C114.183 259.407 113.79 259.799 113.79 260.283V281.323C113.79 281.807 114.183 282.199 114.667 282.199H145.791C146.275 282.199 146.668 282.592 146.668 283.076V288.527C146.668 289.011 146.275 289.404 145.791 289.404H106.546C106.062 289.404 105.669 289.011 105.669 288.527V223.214C105.669 222.73 106.062 222.337 106.546 222.337H234.996ZM64.999 259.142C64.5149 259.142 64.1222 259.535 64.1221 260.019V281.581C64.1221 282.066 64.5148 282.458 64.999 282.458H80.2334C85.5383 282.458 89.3044 281.432 91.5312 279.38C93.7798 277.306 94.9043 274.795 94.9043 271.848C94.9042 269.578 94.325 267.482 93.168 265.561C92.0109 263.618 90.363 262.067 88.2236 260.91C86.0842 259.732 83.5514 259.142 80.626 259.142H64.999ZM417.816 236.227C417.388 236.227 417.023 236.537 416.952 236.959L410.662 274.634C410.573 275.168 410.986 275.655 411.527 275.656H418.188C421.942 275.656 425.261 274.979 428.143 273.625C431.046 272.25 433.447 270.055 435.347 267.042C437.246 264.008 438.6 260.024 439.408 255.09C440.194 250.375 440.161 246.652 439.31 243.923C438.48 241.173 436.864 239.207 434.463 238.029C432.083 236.828 428.972 236.227 425.13 236.227H417.816ZM293.031 229.541C292.603 229.541 292.236 229.852 292.166 230.275L287.91 255.87H302.375C305.955 255.87 308.924 255.346 311.282 254.298C313.64 253.25 315.474 251.755 316.784 249.812C318.094 247.869 318.967 245.566 319.403 242.903C319.84 240.195 319.72 237.848 319.043 235.862C318.388 233.853 317.046 232.303 315.016 231.211C313.007 230.098 310.191 229.541 306.567 229.541H293.031ZM64.999 229.8C64.5149 229.8 64.1223 230.193 64.1221 230.677V251.192C64.1221 251.676 64.5148 252.069 64.999 252.069H79.1855C81.6306 252.069 83.836 251.589 85.8008 250.628C87.7873 249.668 89.3596 248.314 90.5166 246.568C91.6955 244.821 92.2842 242.768 92.2842 240.41C92.2841 237.463 91.2581 234.963 89.2061 232.911C87.1539 230.837 83.9008 229.8 79.4473 229.8H64.999Z" fill="black"/></g><defs><clipPath id="clip0_750_254"><rect width="512" height="512" rx="8" fill="white"/></clipPath></defs></svg>