<svg viewBox="0 0 28 28" fill="none" xmlns="http://www.w3.org/2000/svg"><rect width="28" height="28" rx="8" fill="white" fill-opacity="0.3"/><path d="M9.47331 22H6.05694V10.5714H9.47331V22ZM22 22H18.5836V15.8949C18.5836 14.304 18.0188 13.512 16.8994 13.512C16.0122 13.512 15.4497 13.9554 15.1673 14.8434C15.1673 16.2857 15.1673 22 15.1673 22H11.7509C11.7509 22 11.7964 11.7143 11.7509 10.5714H14.4475L14.6559 12.8571H14.7265C15.4269 11.7143 16.5463 10.9394 18.0814 10.9394C19.2487 10.9394 20.1927 11.2651 20.9136 12.0834C21.639 12.9029 22 14.0023 22 15.5463V22Z" fill="black"/><path d="M7.76512 9.42857C8.73998 9.42857 9.53025 8.66106 9.53025 7.71429C9.53025 6.76751 8.73998 6 7.76512 6C6.79027 6 6 6.76751 6 7.71429C6 8.66106 6.79027 9.42857 7.76512 9.42857Z" fill="black"/></svg>