<svg width="168" height="28" viewBox="0 0 168 28" fill="none" xmlns="http://www.w3.org/2000/svg">
<path d="M151.692 27.9215H142.222C141.65 27.9215 141.215 27.4078 141.31 26.8439L145.676 0.801128C145.751 0.355636 146.136 0.0292969 146.588 0.0292969H156.052C158.913 0.0292969 161.297 0.605845 163.204 1.75894C165.121 2.90296 166.473 4.54635 167.262 6.68911C168.059 8.82279 168.211 11.365 167.716 14.3159C167.239 17.1668 166.281 19.6092 164.841 21.643C163.411 23.6768 161.577 25.234 159.339 26.3144C157.102 27.3858 154.553 27.9215 151.692 27.9215ZM149.068 21.0957C148.973 21.6599 149.408 22.1742 149.98 22.1742H152.119C153.696 22.1742 155.089 21.8927 156.3 21.3298C157.519 20.7578 158.528 19.8453 159.326 18.5923C160.123 17.3303 160.692 15.6733 161.031 13.6213C161.361 11.6601 161.347 10.1121 160.99 8.97714C160.641 7.83313 159.963 7.01597 158.954 6.52568C157.955 6.0263 156.648 5.77662 155.034 5.77662H152.433C151.981 5.77662 151.596 6.10251 151.521 6.54762L149.068 21.0957Z" fill="#343434"/>
<path d="M119.731 27.9215C119.159 27.9215 118.725 27.4078 118.819 26.8439L123.185 0.801128C123.26 0.355636 123.646 0.0292969 124.097 0.0292969H141.859C142.432 0.0292969 142.867 0.544982 142.771 1.10975L142.152 4.73521C142.076 5.17941 141.691 5.50423 141.24 5.50423H129.974C129.521 5.50423 129.134 5.83257 129.061 6.27975L128.428 10.1504C128.336 10.7132 128.77 11.2243 129.341 11.2243H138.985C139.558 11.2243 139.993 11.7397 139.897 12.3044L139.277 15.9435C139.201 16.3878 138.816 16.7129 138.365 16.7129H128.103C127.65 16.7129 127.264 17.0414 127.191 17.4887L126.557 21.373C126.465 21.9357 126.9 22.4466 127.47 22.4466H138.118C138.691 22.4466 139.126 22.9623 139.03 23.527L138.411 27.1525C138.335 27.5967 137.95 27.9215 137.499 27.9215H119.731Z" fill="#343434"/>
<path d="M92.742 27.8922C92.1702 27.8922 91.7354 27.3785 91.83 26.8146L96.1962 0.771832C96.2709 0.326339 96.6565 0 97.1082 0H105.843C108.044 0 109.786 0.367719 111.07 1.10316C112.363 1.8386 113.238 2.85096 113.697 4.14025C114.164 5.42954 114.261 6.90042 113.986 8.55289C113.711 10.1872 113.124 11.6399 112.225 12.911C111.336 14.1822 110.125 15.1809 108.594 15.9073C107.072 16.6336 105.22 16.9968 103.038 16.9968H96.4418C95.8654 16.9968 95.4294 16.4752 95.5317 15.908L95.7483 14.7067C95.8277 14.2664 96.211 13.9461 96.6584 13.9461H103.478C104.981 13.9461 106.228 13.7282 107.219 13.2924C108.209 12.8566 108.979 12.2346 109.529 11.4265C110.08 10.6185 110.446 9.66058 110.63 8.55289C110.813 7.42703 110.763 6.45098 110.478 5.62475C110.203 4.78943 109.639 4.14479 108.787 3.69082C107.943 3.22776 106.76 2.99623 105.238 2.99623H100.024C99.5722 2.99623 99.1867 3.32243 99.1119 3.76781L95.1899 27.1206C95.1151 27.566 94.7295 27.8922 94.2779 27.8922H92.742ZM106.365 15.3625C106.747 15.3625 107.089 15.5975 107.227 15.9539L111.354 26.6342C111.588 27.2401 111.141 27.8922 110.491 27.8922H108.518C108.134 27.8922 107.789 27.654 107.653 27.2942L103.62 16.6139C103.392 16.0091 103.839 15.3625 104.485 15.3625H106.365Z" fill="#343434"/>
<path d="M76.3132 27.8922C75.8024 27.8922 75.3884 27.4782 75.3884 26.9675V0.924735C75.3884 0.414018 75.8024 0 76.3132 0H92.2982C92.8698 0 93.3045 0.513454 93.2103 1.07726L93.0185 2.22402C92.944 2.66969 92.5583 2.99623 92.1064 2.99623H79.7241C79.2134 2.99623 78.7994 3.41025 78.7994 3.92097V11.496C78.7994 12.0067 79.2134 12.4208 79.7241 12.4208H90.4158C90.9875 12.4208 91.4222 12.9342 91.3279 13.498L91.1361 14.6448C91.0616 15.0904 90.6759 15.417 90.224 15.417H79.7241C79.2134 15.417 78.7994 15.831 78.7994 16.3417V23.9712C78.7994 24.482 79.2134 24.896 79.7241 24.896H91.6836C92.1943 24.896 92.6084 25.31 92.6084 25.8207V26.9675C92.6084 27.4782 92.1943 27.8922 91.6836 27.8922H76.3132Z" fill="#343434"/>
<path d="M55.3451 2.99623C54.8344 2.99623 54.4204 2.58222 54.4204 2.0715V0.924737C54.4204 0.414019 54.8344 0 55.3451 0H74.6217C75.1324 0 75.5465 0.414019 75.5465 0.924736V2.0715C75.5465 2.58221 75.1324 2.99623 74.6217 2.99623H67.6137C67.1029 2.99623 66.6889 3.41025 66.6889 3.92097V26.9675C66.6889 27.4782 66.2749 27.8922 65.7642 27.8922H64.2027C63.692 27.8922 63.2779 27.4782 63.2779 26.9675V3.92097C63.2779 3.41025 62.8639 2.99623 62.3532 2.99623H55.3451Z" fill="#343434"/>
<path d="M37.9703 2.99623C37.4596 2.99623 37.0455 2.58222 37.0455 2.0715V0.924737C37.0455 0.414019 37.4596 0 37.9703 0H57.2468C57.7576 0 58.1716 0.414019 58.1716 0.924736V2.0715C58.1716 2.58221 57.7576 2.99623 57.2468 2.99623H50.2388C49.7281 2.99623 49.314 3.41025 49.314 3.92097V26.9675C49.314 27.4782 48.9 27.8922 48.3893 27.8922H46.8278C46.3171 27.8922 45.9031 27.4782 45.9031 26.9675V3.92097C45.9031 3.41025 45.489 2.99623 44.9783 2.99623H37.9703Z" fill="#343434"/>
<path d="M21.7855 27.8922C21.2747 27.8922 20.8607 27.4782 20.8607 26.9675V0.924735C20.8607 0.414018 21.2747 0 21.7855 0H36.9358C37.4466 0 37.8606 0.414019 37.8606 0.924736V2.0715C37.8606 2.58221 37.4466 2.99623 36.9358 2.99623H25.1964C24.6857 2.99623 24.2717 3.41025 24.2717 3.92097V11.496C24.2717 12.0067 24.6857 12.4208 25.1964 12.4208H36.0556C36.5663 12.4208 36.9803 12.8348 36.9803 13.3455V14.4922C36.9803 15.003 36.5663 15.417 36.0556 15.417H25.1964C24.6857 15.417 24.2717 15.831 24.2717 16.3417V23.9712C24.2717 24.482 24.6857 24.896 25.1964 24.896H37.1559C37.6666 24.896 38.0806 25.31 38.0806 25.8207V26.9675C38.0806 27.4782 37.6666 27.8922 37.1559 27.8922H21.7855Z" fill="#343434"/>
<path d="M0.924735 27.9996C0.414018 27.9996 0 27.5856 0 27.0749V1.03216C0 0.52144 0.414019 0.107422 0.924736 0.107422H9.84782C11.81 0.107422 13.4284 0.443364 14.703 1.11525C15.9775 1.77805 16.9265 2.67238 17.55 3.79824C18.1735 4.91501 18.4853 6.15437 18.4853 7.51629C18.4853 8.71478 18.2698 9.70445 17.8389 10.4853C17.4171 11.2661 16.8577 11.8835 16.1609 12.3375C15.5068 12.7693 14.7988 13.0943 14.0369 13.3125C13.9675 13.3324 13.919 13.3955 13.919 13.4677C13.919 13.552 13.9846 13.6216 14.0685 13.6296C14.8811 13.7076 15.6978 14.0033 16.5185 14.5166C17.3896 15.0614 18.1185 15.8422 18.7054 16.8591C19.2922 17.876 19.5856 19.1199 19.5856 20.5908C19.5856 21.989 19.2647 23.2465 18.6228 24.3633C17.981 25.4801 16.9678 26.3653 15.5832 27.019C14.1986 27.6728 12.3969 27.9996 10.1779 27.9996H0.924735ZM3.41098 24.0787C3.41098 24.5894 3.82499 25.0034 4.33571 25.0034H10.1779C12.406 25.0034 13.9878 24.5767 14.923 23.7232C15.8675 22.8606 16.3397 21.8165 16.3397 20.5908C16.3397 19.6465 16.0967 18.7749 15.6107 17.9759C15.1247 17.1678 14.4325 16.5232 13.5339 16.0419C12.6353 15.5516 11.5716 15.3065 10.343 15.3065H4.33571C3.825 15.3065 3.41098 15.7205 3.41098 16.2312V24.0787ZM3.41098 11.44C3.41098 11.9507 3.82499 12.3647 4.33571 12.3647H9.73779C10.7647 12.3647 11.6908 12.165 12.5161 11.7655C13.3505 11.366 14.0107 10.8031 14.4966 10.0767C14.9918 9.35035 15.2394 8.49688 15.2394 7.51629C15.2394 6.29056 14.8084 5.25096 13.9465 4.39748C13.0846 3.53493 11.7184 3.10366 9.84782 3.10366H4.33571C3.82499 3.10366 3.41098 3.51767 3.41098 4.02839V11.44Z" fill="#343434"/>
</svg>
