<svg viewBox="0 0 168 28" fill="none" xmlns="http://www.w3.org/2000/svg"><path fill-rule="evenodd" clip-rule="evenodd" d="M9.76172 0.108323C11.7067 0.108323 13.3109 0.444063 14.5742 1.11584C15.8376 1.77863 16.7789 2.67283 17.3969 3.79868C18.0149 4.91535 18.3234 6.15461 18.3235 7.51638C18.3235 8.71472 18.1101 9.70449 17.683 10.4853C17.2649 11.2661 16.711 11.8844 16.0203 12.3383C15.3724 12.7698 14.6705 13.094 13.9159 13.3122C13.8465 13.3322 13.7971 13.3957 13.797 13.4678C13.797 13.5523 13.8633 13.6216 13.9474 13.6298C14.7524 13.7081 15.5617 14.0045 16.3747 14.5174C17.238 15.0622 17.9606 15.8428 18.5422 16.8595C19.1239 17.8764 19.4151 19.1202 19.4151 20.5909C19.4151 21.989 19.0963 23.2466 18.4602 24.3633C17.8239 25.4801 16.8196 26.3661 15.4471 27.0198C14.0747 27.6735 12.2883 28 10.0888 28H1.05694C0.473395 28 0 27.527 0 26.9441V1.16316C0.000121342 0.580349 0.47347 0.108323 1.05694 0.108323H9.76172ZM4.4381 15.3072C3.85466 15.3072 3.38133 15.7793 3.38116 16.3621V23.9479C3.38116 24.5308 3.85455 25.0038 4.4381 25.0038H10.0888C12.2974 25.0038 13.8659 24.5773 14.793 23.7239C15.7292 22.8613 16.197 21.8166 16.197 20.5909C16.1969 19.6468 15.9561 18.7753 15.4745 17.9764C14.9927 17.1683 14.306 16.5236 13.4153 16.0424C12.5246 15.5522 11.4706 15.3073 10.2529 15.3072H4.4381ZM4.4381 3.10457C3.85462 3.10457 3.38127 3.57658 3.38116 4.15941V11.3098C3.3812 11.8927 3.85458 12.3657 4.4381 12.3657H9.65234C10.6702 12.3657 11.5887 12.1656 12.4067 11.7662C13.2338 11.3667 13.8885 10.8036 14.3702 10.0772C14.861 9.35087 15.1064 8.49696 15.1064 7.51638C15.1063 6.29082 14.6787 5.25152 13.8244 4.39814C12.97 3.53567 11.6158 3.10457 9.76172 3.10457H4.4381Z" fill="#343434"/><path d="M142.803 0.0294471C143.457 0.0294471 143.954 0.616872 143.845 1.26097L143.275 4.62425C143.189 5.13193 142.749 5.50437 142.234 5.50451H131.306C130.787 5.50451 130.345 5.87993 130.262 6.39108L129.678 9.9994C129.574 10.6412 130.069 11.2234 130.72 11.2236H139.954C140.607 11.2236 141.105 11.8111 140.996 12.4551L140.426 15.8331C140.34 16.3409 139.899 16.7122 139.384 16.7123H129.452C128.933 16.7123 128.491 17.0886 128.408 17.5999L127.823 21.223C127.719 21.8645 128.215 22.4461 128.866 22.4461H139.094C139.748 22.4461 140.246 23.0336 140.137 23.6776L139.567 27.0419C139.481 27.5494 139.041 27.9209 138.526 27.9211H121.195C120.542 27.9209 120.046 27.3358 120.153 26.6928L124.437 0.911809C124.522 0.402731 124.963 0.0296761 125.479 0.0294471H142.803Z" fill="#343434"/><path fill-rule="evenodd" clip-rule="evenodd" d="M156.156 0.0294471C158.992 0.0294471 161.356 0.605323 163.246 1.75841C165.146 2.90239 166.486 4.54606 167.268 6.6887C168.059 8.82235 168.209 11.3647 167.718 14.3155C167.245 17.1665 166.295 19.6088 164.868 21.6426C163.45 23.6763 161.633 25.2337 159.415 26.3142C157.197 27.3855 154.67 27.9211 151.835 27.9211H142.61C141.958 27.9211 141.461 27.3359 141.568 26.6928L145.853 0.911809C145.937 0.402583 146.378 0.0294583 146.895 0.0294471H156.156ZM152.689 5.77584C152.172 5.77584 151.731 6.1494 151.646 6.6582L149.259 20.9443C149.151 21.5877 149.648 22.1737 150.301 22.1737H152.257C153.821 22.1737 155.202 21.8921 156.402 21.3292C157.611 20.7572 158.611 19.8445 159.401 18.5916C160.192 17.3297 160.755 15.673 161.091 13.6214C161.419 11.6605 161.406 10.1121 161.051 8.97716C160.706 7.83323 160.033 7.01599 159.033 6.52569C158.043 6.02632 156.747 5.77584 155.147 5.77584H152.689Z" fill="#343434"/><path fill-rule="evenodd" clip-rule="evenodd" d="M35.8866 0C36.133 0 36.3599 0.0847966 36.5397 0.226112C36.7194 0.084695 36.9462 0 37.1928 0H70.3123C70.7547 1.18658e-05 71.133 0.271896 71.2904 0.657302C71.4477 0.271935 71.8262 0.00016781 72.2685 0H87.8113C88.4637 5.18421e-05 88.9601 0.585387 88.8535 1.22837L88.7073 2.11283C88.6229 2.62226 88.181 2.99624 87.664 2.99624H75.6496C75.0663 2.99649 74.5937 3.46937 74.5937 4.05213V11.3655C74.5939 11.9482 75.0664 12.4201 75.6496 12.4204H85.9456C86.5979 12.4206 87.0944 13.0058 86.9878 13.6487L86.8406 14.5343C86.756 15.0435 86.3151 15.4166 85.7984 15.4166H75.6496C75.0663 15.4169 74.5937 15.8897 74.5937 16.4725V23.8406C74.5938 24.4233 75.0664 24.8952 75.6496 24.8954H87.2255C87.3308 24.8955 87.4324 24.912 87.5284 24.9407L91.5269 0.882362C91.6116 0.37327 92.0524 2.35556e-05 92.5691 0H101.108C103.289 0 105.017 0.36778 106.289 1.10322C107.571 1.83864 108.439 2.85128 108.893 4.14047C109.357 5.42969 109.452 6.90099 109.179 8.55334C108.907 10.1872 108.325 11.6396 107.435 12.9105C106.553 14.1816 105.353 15.1803 103.835 15.9067C103.458 16.0881 103.061 16.247 102.643 16.3831L106.504 26.4593C106.769 27.1502 106.258 27.8914 105.517 27.8917H103.859C103.418 27.8917 103.024 27.6184 102.869 27.206L99.0422 16.9815C98.8079 16.9907 98.5696 16.9962 98.3271 16.9962H92.2326L90.5656 27.0093C90.4809 27.5184 90.0401 27.8917 89.5234 27.8917H88.2845C88.0898 27.8917 87.9095 27.8388 87.7545 27.7486C87.5988 27.839 87.4185 27.8916 87.2255 27.8917H72.2685C71.6852 27.8915 71.2127 27.4195 71.2126 26.8368V2.49038C71.0269 2.79326 70.6939 2.99623 70.3123 2.99624H63.6457C63.0622 2.99624 62.5888 3.46922 62.5888 4.05213V26.8368C62.5887 27.4197 62.1153 27.8917 61.5318 27.8917H60.2646C59.6811 27.8917 59.2077 27.4197 59.2076 26.8368V4.05213C59.2076 3.46922 58.7342 2.99624 58.1507 2.99624H49.3544C48.7709 2.99624 48.2975 3.46922 48.2975 4.05213V26.8368C48.2973 27.4197 47.824 27.8917 47.2405 27.8917H45.9732C45.3898 27.8917 44.9164 27.4197 44.9163 26.8368V4.05213C44.9163 3.46922 44.4429 2.99624 43.8594 2.99624H37.1928C36.9459 2.99624 36.7195 2.91073 36.5397 2.76908C36.3598 2.91063 36.1333 2.99624 35.8866 2.99624H24.5305C23.9469 2.99624 23.4736 3.46922 23.4736 4.05213V11.3655C23.4737 11.9483 23.9471 12.4204 24.5305 12.4204H35.0147C35.5982 12.4205 36.0706 12.8934 36.0706 13.4763V14.3618C36.0704 14.9445 35.5981 15.4165 35.0147 15.4166H24.5305C23.9469 15.4166 23.4736 15.8896 23.4736 16.4725V23.8406C23.4737 24.4234 23.947 24.8954 24.5305 24.8954H36.1053C36.6888 24.8955 37.1623 25.3684 37.1623 25.9513V26.8368C37.1621 27.4196 36.6887 27.8916 36.1053 27.8917H21.1483C20.565 27.8914 20.0925 27.4195 20.0924 26.8368V1.05589C20.0924 0.473133 20.565 0.000257397 21.1483 0H35.8866ZM95.4591 2.99624C94.9425 2.99632 94.5016 3.36956 94.4169 3.87861L92.7405 13.9464H98.7635C100.254 13.9463 101.49 13.728 102.472 13.2922C103.453 12.8564 104.217 12.2345 104.762 11.4265C105.308 10.6186 105.671 9.6608 105.853 8.55334C106.035 7.42748 105.984 6.45063 105.703 5.6244C105.43 4.78929 104.871 4.14426 104.026 3.69035C103.19 3.2273 102.017 2.99624 100.508 2.99624H95.4591Z" fill="#343434"/></svg>