<svg viewBox="0 0 18 16" fill="none" xmlns="http://www.w3.org/2000/svg"><path fill-rule="evenodd" clip-rule="evenodd" d="M4.81395 0C3.46189 0 2.23924 0.349085 1.35181 1.20035C0.455961 2.05969 0 3.33583 0 4.97297V11.027C0 12.6642 0.455961 13.9403 1.35181 14.7997C2.23924 15.6509 3.46189 16 4.81395 16H13.186C14.5381 16 15.7608 15.6509 16.6482 14.7997C17.5441 13.9403 18 12.6642 18 11.027V4.97297C18 3.33583 17.5441 2.05969 16.6482 1.20035C15.7608 0.349085 14.5381 0 13.186 0H4.81395ZM15.0518 4.85388C15.3261 4.63485 15.3767 4.22748 15.1646 3.94401C14.9526 3.66053 14.5583 3.6083 14.2839 3.82735L9.6398 7.53436C9.26297 7.83524 8.73695 7.83524 8.36004 7.53436L3.71604 3.82735C3.44162 3.6083 3.04729 3.66053 2.83525 3.94401C2.62321 4.22748 2.67377 4.63485 2.94818 4.85388L7.59223 8.56095C8.4214 9.22275 9.57851 9.22275 10.4077 8.56095L15.0518 4.85388Z" fill="black"/></svg>5.2227 15.4077 14.561L20.0518 10.8539Z" fill="black"/></svg>