<svg viewBox="0 0 28 28" fill="none" xmlns="http://www.w3.org/2000/svg"><rect width="28" height="28" rx="8" fill="white" fill-opacity="0.3"/><path fill-rule="evenodd" clip-rule="evenodd" d="M20.2511 8.98614C20.9395 9.16194 21.4816 9.6799 21.6657 10.3375C22 11.5295 22 14.0165 22 14.0165C22 14.0165 22 16.5036 21.6657 17.6956C21.4816 18.3532 20.9395 18.8496 20.2511 19.0254C19.0033 19.3448 14 19.3448 14 19.3448C14 19.3448 8.99667 19.3448 7.74888 19.0254C7.06049 18.8496 6.51833 18.3532 6.33433 17.6956C6 16.5037 6 14.0166 6 14.0166C6 14.0166 6 11.5295 6.33433 10.3375C6.51833 9.6799 7.06049 9.16198 7.74888 8.98618C8.99667 8.6668 14 8.6668 14 8.6668C14 8.6668 19.0033 8.6668 20.2511 8.98614ZM12.3639 11.7584V16.2745L16.5457 14.0165L12.3639 11.7584Z" fill="black"/></svg>